<?xml version="1.0" encoding="iso-8859-1"?>
<!-- Generator: Adobe Illustrator 19.0.0, SVG Export Plug-In . SVG Version: 6.00 Build 0)  -->
<svg xmlns="http://www.w3.org/2000/svg" xmlns:xlink="http://www.w3.org/1999/xlink" version="1.1" id="Layer_1" x="0px" y="0px" viewBox="0 0 512 512" style="enable-background:new 0 0 512 512;" xml:space="preserve" width="512px" height="512px">
<g>
	<g>
		<path d="M437.333,53.333H74.667C33.493,53.333,0,86.827,0,128v256c0,41.173,33.493,74.667,74.667,74.667h362.667    C478.507,458.667,512,425.173,512,384V128C512,86.827,478.507,53.333,437.333,53.333z M490.667,384    c0,29.397-23.915,53.333-53.333,53.333H74.667c-29.419,0-53.333-23.936-53.333-53.333V128c0-29.397,23.915-53.333,53.333-53.333    h362.667c29.419,0,53.333,23.936,53.333,53.333V384z" fill="#2a93fe"/>
	</g>
</g>
<g>
	<g>
		<path d="M416,224c-17.643,0-32,14.357-32,32s14.357,32,32,32c17.643,0,32-14.357,32-32S433.643,224,416,224z M416,266.667    c-5.867,0-10.667-4.779-10.667-10.667c0-5.888,4.8-10.667,10.667-10.667c5.867,0,10.667,4.779,10.667,10.667    C426.667,261.888,421.867,266.667,416,266.667z" fill="#2a93fe"/>
	</g>
</g>
<g>
	<g>
		<path d="M501.333,181.333H416c-41.173,0-74.667,33.493-74.667,74.667s33.493,74.667,74.667,74.667h85.333    c5.888,0,10.667-4.779,10.667-10.667V192C512,186.112,507.221,181.333,501.333,181.333z M490.667,309.333H416    c-29.419,0-53.333-23.936-53.333-53.333s23.915-53.333,53.333-53.333h74.667V309.333z" fill="#2a93fe"/>
	</g>
</g>
<g>
</g>
<g>
</g>
<g>
</g>
<g>
</g>
<g>
</g>
<g>
</g>
<g>
</g>
<g>
</g>
<g>
</g>
<g>
</g>
<g>
</g>
<g>
</g>
<g>
</g>
<g>
</g>
<g>
</g>
</svg>
